<?xml version="1.0" encoding="utf-8" ?>
<svg baseProfile="full" height="380.0" version="1.1" width="1710.0" xmlns="http://www.w3.org/2000/svg" xmlns:ev="http://www.w3.org/2001/xml-events" xmlns:xlink="http://www.w3.org/1999/xlink"><defs /><rect fill="rgb(0,0,50)" fill-opacity="0.4" height="250" width="1540" x="100.0" y="30.0" /><circle cx="275.0" cy="155.0" fill="rgb(200,200,200)" r="7" stroke="rgb(0,0,0)" stroke-width="2" /><circle cx="415.0" cy="155.0" fill="rgb(200,200,200)" r="7" stroke="rgb(0,0,0)" stroke-width="2" /><circle cx="555.0" cy="155.0" fill="rgb(200,200,200)" r="7" stroke="rgb(0,0,0)" stroke-width="2" /><circle cx="695.0" cy="155.0" fill="rgb(200,200,200)" r="7" stroke="rgb(0,0,0)" stroke-width="2" /><circle cx="905.0" cy="105.0" fill="rgb(200,200,200)" r="7" stroke="rgb(0,0,0)" stroke-width="2" /><circle cx="905.0" cy="205.0" fill="rgb(200,200,200)" r="7" stroke="rgb(0,0,0)" stroke-width="2" /><circle cx="1115.0" cy="155.0" fill="rgb(200,200,200)" r="7" stroke="rgb(0,0,0)" stroke-width="2" /><circle cx="1255.0" cy="155.0" fill="rgb(200,200,200)" r="7" stroke="rgb(0,0,0)" stroke-width="2" /><circle cx="1395.0" cy="155.0" fill="rgb(200,200,200)" r="7" stroke="rgb(0,0,0)" stroke-width="2" /><circle cx="1535.0" cy="155.0" fill="rgb(200,200,200)" r="7" stroke="rgb(0,0,0)" stroke-width="2" /><line stroke="rgb(150,150,150)" stroke-width="3" x1="100.0" x2="100.0" y1="30.0" y2="280.0" /><line stroke="rgb(150,150,150)" stroke-width="3" x1="170.0" x2="170.0" y1="30.0" y2="280.0" /><line stroke="rgb(150,150,150)" stroke-width="3" x1="240.0" x2="240.0" y1="30.0" y2="280.0" /><line stroke="rgb(150,150,150)" stroke-width="3" x1="310.0" x2="310.0" y1="30.0" y2="280.0" /><line stroke="rgb(150,150,150)" stroke-width="3" x1="380.0" x2="380.0" y1="30.0" y2="280.0" /><line stroke="rgb(150,150,150)" stroke-width="3" x1="450.0" x2="450.0" y1="30.0" y2="280.0" /><line stroke="rgb(150,150,150)" stroke-width="3" x1="520.0" x2="520.0" y1="30.0" y2="280.0" /><line stroke="rgb(150,150,150)" stroke-width="3" x1="590.0" x2="590.0" y1="30.0" y2="280.0" /><line stroke="rgb(150,150,150)" stroke-width="3" x1="660.0" x2="660.0" y1="30.0" y2="280.0" /><line stroke="rgb(150,150,150)" stroke-width="3" x1="730.0" x2="730.0" y1="30.0" y2="280.0" /><line stroke="rgb(150,150,150)" stroke-width="3" x1="800.0" x2="800.0" y1="30.0" y2="280.0" /><line stroke="rgb(150,150,150)" stroke-width="3" x1="870.0" x2="870.0" y1="30.0" y2="280.0" /><line stroke="rgb(150,150,150)" stroke-width="3" x1="940.0" x2="940.0" y1="30.0" y2="280.0" /><line stroke="rgb(150,150,150)" stroke-width="3" x1="1010.0" x2="1010.0" y1="30.0" y2="280.0" /><line stroke="rgb(150,150,150)" stroke-width="3" x1="1080.0" x2="1080.0" y1="30.0" y2="280.0" /><line stroke="rgb(150,150,150)" stroke-width="3" x1="1150.0" x2="1150.0" y1="30.0" y2="280.0" /><line stroke="rgb(150,150,150)" stroke-width="3" x1="1220.0" x2="1220.0" y1="30.0" y2="280.0" /><line stroke="rgb(150,150,150)" stroke-width="3" x1="1290.0" x2="1290.0" y1="30.0" y2="280.0" /><line stroke="rgb(150,150,150)" stroke-width="3" x1="1360.0" x2="1360.0" y1="30.0" y2="280.0" /><line stroke="rgb(150,150,150)" stroke-width="3" x1="1430.0" x2="1430.0" y1="30.0" y2="280.0" /><line stroke="rgb(150,150,150)" stroke-width="3" x1="1500.0" x2="1500.0" y1="30.0" y2="280.0" /><line stroke="rgb(150,150,150)" stroke-width="3" x1="1570.0" x2="1570.0" y1="30.0" y2="280.0" /><line stroke="rgb(150,150,150)" stroke-width="3" x1="1640.0" x2="1640.0" y1="30.0" y2="280.0" /><line stroke="rgb(0,0,0)" stroke-width="6" x1="100.0" x2="100.0" y1="30.0" y2="280.0" /><line stroke="rgb(200,200,200)" stroke-width="2" x1="100.0" x2="1640.0" y1="30.0" y2="30.0" /><line stroke="rgb(200,200,200)" stroke-width="2" x1="100.0" x2="1640.0" y1="80.0" y2="80.0" /><line stroke="rgb(200,200,200)" stroke-width="2" x1="100.0" x2="1640.0" y1="130.0" y2="130.0" /><line stroke="rgb(200,200,200)" stroke-width="2" x1="100.0" x2="1640.0" y1="180.0" y2="180.0" /><line stroke="rgb(200,200,200)" stroke-width="2" x1="100.0" x2="1640.0" y1="230.0" y2="230.0" /><line stroke="rgb(200,200,200)" stroke-width="2" x1="100.0" x2="1640.0" y1="280.0" y2="280.0" /><g><circle cx="345.0" cy="30.0" fill="rgb(255,255,255)" r="20" stroke="rgb(0,0,0)" stroke-width="3" /><text dy="0.3em" fill="rgb(0,0,0)" font-size="20" font-weight="bold" style="text-anchor:middle" x="345.0" y="30.0" /></g><g><circle cx="1185.0" cy="30.0" fill="rgb(255,255,255)" r="20" stroke="rgb(0,0,0)" stroke-width="3" /><text dy="0.3em" fill="rgb(0,0,0)" font-size="20" font-weight="bold" style="text-anchor:middle" x="1185.0" y="30.0" /></g></svg>